<svg xmlns="http://www.w3.org/2000/svg" viewBox="0 0 668 534.52"><defs><style>.cls-1{fill:none;stroke:#fff;stroke-miterlimit:10;stroke-width:8px;}</style></defs><title>Fichier 3</title><g id="Calque_2" data-name="Calque 2"><g id="Calque_1-2" data-name="Calque 1"><path class="cls-1" d="M4,183.16C4,100.15,151.75,4.54,334,4.54s330,95.61,330,178.61S516.25,357.42,334,357.42,4,266.17,4,183.16Z"/><circle class="cls-1" cx="333.46" cy="180.44" r="176.44"/><circle class="cls-1" cx="333.46" cy="180.44" r="83.86"/><path class="cls-1" d="M607.77,460.72a63.12,63.12,0,0,0-4.89-18.92c-15.17-40-58.34-85.39-58.34-85.39s-43.17,45.39-58.34,85.39a63.12,63.12,0,0,0-4.89,18.92A47.87,47.87,0,0,0,481,467a63.54,63.54,0,0,0,127.07,0A47.87,47.87,0,0,0,607.77,460.72Z"/></g></g></svg>